<svg width="150" height="48" viewBox="0 0 150 48" fill="none" xmlns="http://www.w3.org/2000/svg">
<g clip-path="url(#clip0_7641_72)">
<path d="M17.9991 26.0256C17.3943 25.3913 16.4468 24.9003 15.1969 24.6138L13.2011 24.1432C12.4754 23.9795 11.9512 23.7545 11.6287 23.4885C11.3465 23.243 11.2053 22.9361 11.2053 22.5269C11.2053 22.0767 11.4271 21.688 11.8706 21.3811C12.3343 21.0537 12.9391 20.89 13.6648 20.89C14.4309 20.89 15.0155 21.0537 15.3783 21.4015C15.7614 21.7494 16.0436 22.1586 16.2049 22.5882L16.3057 22.8338L18.8055 22.179L18.7047 21.8721C18.5031 21.1969 18.1805 20.6036 17.7572 20.0921C17.3338 19.5806 16.7694 19.1714 16.1041 18.8645C15.4388 18.578 14.6123 18.4348 13.685 18.4348C12.7576 18.4348 11.8303 18.6189 11.0441 18.9668C10.2578 19.3146 9.6329 19.8261 9.18939 20.4399C8.72572 21.0742 8.48381 21.8312 8.48381 22.6496C8.48381 23.6726 8.80636 24.532 9.45146 25.1867C10.0764 25.821 11.0239 26.312 12.2738 26.5985L14.4712 27.1304C15.076 27.2737 15.5195 27.4783 15.7815 27.7442C16.0436 27.9898 16.1646 28.2967 16.1646 28.6854C16.1646 29.1356 15.9428 29.5243 15.4791 29.8721C14.9953 30.2404 14.3099 30.4041 13.443 30.4041C12.7173 30.4041 12.1125 30.2404 11.6488 29.9335C11.1852 29.6266 10.8828 29.156 10.7014 28.5013L10.6207 28.2148L8.02014 28.8491L8.08062 29.1356C8.2419 29.954 8.58461 30.6496 9.06843 31.2225C9.55226 31.7954 10.1772 32.2251 10.9231 32.4911C11.669 32.7775 12.5157 32.9207 13.443 32.9207C14.5115 32.9207 15.4791 32.7366 16.2855 32.3683C17.1121 32 17.7773 31.468 18.241 30.8133C18.7047 30.1586 18.9466 29.3811 18.9466 28.5422C18.9466 27.5396 18.624 26.7008 17.9991 26.046V26.0256Z" fill="#6528D3"/>
<path d="M30.2763 18.578L27.3733 26.7212C27.0911 27.5192 26.8492 28.3171 26.6476 29.0946C26.446 28.3171 26.2041 27.5192 25.9218 26.7212L23.039 18.578H20.0554L25.2162 32.3683L24.8735 33.3708C24.6719 33.9642 24.4502 34.3939 24.1881 34.6803C23.9462 34.9258 23.7043 35.0691 23.4019 35.1304C23.0995 35.1714 22.7366 35.1304 22.3334 35.0486L21.8295 34.9054L21.1239 37.2992L21.3456 37.422C21.4867 37.4834 21.6883 37.5448 21.9907 37.6061C22.2931 37.6675 22.6358 37.688 23.039 37.688C23.7043 37.688 24.3091 37.5652 24.8332 37.3402C25.3775 37.0946 25.8412 36.7263 26.2444 36.2353C26.6274 35.7442 26.9701 35.1304 27.2524 34.3939L33.1994 18.578H30.236H30.2763Z" fill="#6528D3"/>
<path d="M45.5772 20.8286C45.174 20.0307 44.6096 19.4169 43.8838 19.0281C43.1783 18.6394 42.3316 18.4348 41.4042 18.4348C40.3559 18.4348 39.4084 18.7212 38.6222 19.2737C38.2593 19.5192 37.957 19.8465 37.6747 20.2353V18.5985H35.0137V32.6138H37.7352V24.266C37.7352 23.5499 37.8763 22.9565 38.1384 22.4655C38.4005 21.9744 38.7633 21.6061 39.2068 21.3606C39.6705 21.1151 40.1947 20.9719 40.7591 20.9719C41.6058 20.9719 42.2308 21.2174 42.7146 21.7494C43.1984 22.2609 43.4403 23.0179 43.4403 23.9591V32.5934H46.1619V23.7749C46.1619 22.5882 45.9603 21.6061 45.5772 20.8082V20.8286Z" fill="#6528D3"/>
<path d="M54.9514 30.0563L54.6691 30.1177C54.5079 30.1586 54.3063 30.179 54.1047 30.22C53.9232 30.2404 53.762 30.2609 53.641 30.2609C53.1773 30.2609 52.8548 30.1586 52.6734 29.954C52.4919 29.7289 52.3911 29.3606 52.3911 28.8491V21.0742H55.1127V18.6189H52.3911V15.4271H49.6696V18.6189H47.694V21.0742H49.6696V29.0128C49.6696 30.1995 50.0325 31.1202 50.7179 31.7954C51.4033 32.4501 52.371 32.798 53.6007 32.798C53.8829 32.798 54.1853 32.7775 54.4675 32.7366C54.7699 32.6957 55.032 32.6343 55.2739 32.532L55.536 32.4297L54.9715 30.0563H54.9514Z" fill="#6528D3"/>
<path d="M67.2487 20.8082C66.8858 20.133 66.402 19.6215 65.8375 19.2737C65.2932 18.9258 64.7086 18.7008 64.1038 18.5985C63.5192 18.4962 62.995 18.4348 62.5515 18.4348C61.8459 18.4348 61.1403 18.5371 60.4146 18.7417C59.6889 18.9463 59.0034 19.2941 58.3987 19.7647C57.7939 20.2558 57.2899 20.9309 56.927 21.7903L56.8061 22.0972L59.4066 22.977L59.5276 22.7315C59.6485 22.445 59.8501 22.179 60.1122 21.8926C60.3541 21.6266 60.6968 21.4015 61.1 21.2174C61.5032 21.0332 62.0072 20.9514 62.5918 20.9514C63.1764 20.9514 63.62 21.0537 63.9828 21.2379C64.3457 21.422 64.5876 21.6675 64.769 21.9949C64.9505 22.3427 65.0311 22.7724 65.0311 23.3453C65.0311 23.6113 64.9303 23.7136 64.8295 23.7749C64.6279 23.8977 64.2852 23.9795 63.8417 24.0205C63.3377 24.0818 62.6926 24.1637 61.9064 24.266C61.2815 24.3478 60.6565 24.4501 60.0517 24.5934C59.4268 24.7366 58.8422 24.9616 58.318 25.2481C57.7737 25.555 57.3302 25.9642 57.0076 26.4962C56.6851 27.0281 56.5037 27.7033 56.5037 28.5217C56.5037 29.4629 56.7254 30.2609 57.1488 30.9361C57.5721 31.5908 58.1769 32.1023 58.9026 32.4501C59.6284 32.7775 60.4348 32.9616 61.3016 32.9616C62.0878 32.9616 62.7733 32.8389 63.3377 32.5934C63.9022 32.3478 64.3659 32.0614 64.7287 31.6931C64.8497 31.5703 64.9706 31.4271 65.0714 31.3043V32.6343H67.7728V23.4885C67.7728 22.3836 67.5914 21.5038 67.2285 20.8286L67.2487 20.8082ZM65.0513 26.1074V27.4373C65.0513 27.9284 64.9303 28.399 64.6683 28.8491C64.4062 29.2992 64.0433 29.6675 63.5393 29.954C63.0353 30.2404 62.4305 30.3836 61.6846 30.3836C61.2008 30.3836 60.7573 30.3018 60.3944 30.1586C60.0316 30.0153 59.7493 29.8107 59.5477 29.5448C59.3461 29.2788 59.2655 28.9719 59.2655 28.5627C59.2655 28.133 59.3663 27.7852 59.5881 27.5601C59.8098 27.2941 60.1324 27.0895 60.5356 26.9668C60.9589 26.8235 61.4226 26.7212 61.9064 26.6598L62.7329 26.5575C63.0958 26.5166 63.4587 26.4552 63.8417 26.3939C64.2247 26.3325 64.5674 26.2506 64.8698 26.1688C64.9303 26.1688 64.9908 26.1279 65.0513 26.1074Z" fill="#6528D3"/>
<path d="M80.4531 23.9386L80.3927 23.8568L78.3364 20.7468L72.2281 11.5806L72.1071 11.3964H67.7124L76.26 24L65.4142 40H69.7283L78.2356 27.2532L80.3524 24.0614L80.4531 23.9386Z" fill="#6528D3"/>
<path d="M81.0176 22.9565L91.1578 8H86.8235L78.9412 19.8261L81.0176 22.9565Z" fill="#6528D3"/>
<path d="M78.8403 28.1739L84.3237 36.4194L84.4447 36.6036H88.8394L80.9772 24.9616L78.8403 28.1739Z" fill="#6528D3"/>
<path d="M102.346 18.578L100.673 24.6547C100.451 25.4936 100.209 26.4143 99.9474 27.4374C99.8668 27.7852 99.7861 28.133 99.7055 28.5013C99.6249 28.133 99.5442 27.7647 99.4636 27.4169C99.2217 26.3939 98.9999 25.4732 98.7781 24.6547L97.1654 18.578H94.4439L92.7908 24.6547C92.569 25.5141 92.3271 26.4348 92.0852 27.4578C92.0046 27.8056 91.9239 28.1535 91.8433 28.5013C91.7627 28.1125 91.6619 27.7238 91.5812 27.376C91.3191 26.353 91.0974 25.4527 90.8756 24.6547L89.2024 18.578H86.2994L90.4926 32.5934H93.0529L94.8269 26.312C95.0083 25.7187 95.1696 25.0844 95.3309 24.4297C95.472 23.8568 95.6333 23.2634 95.7744 22.6496C95.9155 23.243 96.0566 23.8363 96.2179 24.4092C96.3792 25.0435 96.5606 25.6778 96.7219 26.2916L98.4959 32.5729H101.056L105.249 18.5576H102.346V18.578Z" fill="#6528D3"/>
<path d="M118.434 25.4322C118.434 24.1637 118.252 23.0588 117.909 22.179C117.567 21.2788 117.083 20.5422 116.498 19.9898C115.914 19.4373 115.248 19.0281 114.543 18.7826C113.837 18.5371 113.111 18.4143 112.366 18.4143C111.116 18.4143 110.007 18.7212 109.059 19.3555C108.132 19.9693 107.386 20.8491 106.882 21.9335C106.378 23.0179 106.116 24.2864 106.116 25.6982C106.116 27.11 106.378 28.3785 106.902 29.4424C107.426 30.5268 108.193 31.3657 109.16 31.9795C110.128 32.5729 111.297 32.8798 112.628 32.8798C113.575 32.8798 114.422 32.7366 115.168 32.4296C115.934 32.1227 116.579 31.6931 117.083 31.1611C117.607 30.6087 117.97 29.9744 118.192 29.2583L118.292 28.9514L115.672 28.2148L115.571 28.4808C115.43 28.89 115.208 29.2378 114.926 29.5038C114.644 29.7698 114.321 29.9949 113.938 30.1176C113.555 30.2609 113.111 30.3222 112.628 30.3222C111.882 30.3222 111.216 30.1586 110.652 29.8312C110.088 29.5038 109.664 29.0128 109.342 28.399C109.1 27.8875 108.938 27.2941 108.878 26.5984H118.393V25.3913L118.434 25.4322ZM109.321 22.9156C109.604 22.3427 110.007 21.8516 110.511 21.4834C111.015 21.1355 111.66 20.9514 112.386 20.9514C113.111 20.9514 113.716 21.1355 114.2 21.4834C114.684 21.8312 115.067 22.3222 115.309 22.9565C115.47 23.3453 115.571 23.7545 115.631 24.2046H108.938C108.999 23.7545 109.12 23.3248 109.321 22.9156Z" fill="#6528D3"/>
<path d="M131.033 20.8082C130.67 20.133 130.187 19.6215 129.622 19.2737C129.078 18.9258 128.493 18.7008 127.888 18.5985C127.304 18.4962 126.78 18.4348 126.336 18.4348C125.63 18.4348 124.925 18.5371 124.199 18.7417C123.473 18.9463 122.788 19.2941 122.183 19.7647C121.578 20.2558 121.074 20.9309 120.712 21.7903L120.591 22.0972L123.191 22.977L123.312 22.7315C123.433 22.445 123.635 22.179 123.897 21.8926C124.139 21.6266 124.481 21.4015 124.885 21.2174C125.288 21.0332 125.792 20.9514 126.376 20.9514C126.961 20.9514 127.404 21.0537 127.767 21.2379C128.13 21.422 128.372 21.6675 128.554 21.9949C128.735 22.3427 128.816 22.7724 128.816 23.3453C128.816 23.6113 128.715 23.7136 128.614 23.7749C128.412 23.8977 128.07 23.9795 127.626 24.0205C127.122 24.0818 126.477 24.1637 125.691 24.266C125.066 24.3478 124.441 24.4501 123.836 24.5934C123.211 24.7366 122.627 24.9616 122.103 25.2481C121.558 25.555 121.115 25.9642 120.792 26.4962C120.47 27.0281 120.288 27.7033 120.288 28.5217C120.288 29.4629 120.51 30.2609 120.933 30.9361C121.357 31.5908 121.961 32.1023 122.687 32.4501C123.413 32.7775 124.219 32.9616 125.086 32.9616C125.872 32.9616 126.558 32.8389 127.122 32.5934C127.687 32.3478 128.15 32.0614 128.513 31.6931C128.634 31.5703 128.755 31.4271 128.856 31.3043V32.6343H131.557V23.4885C131.557 22.3836 131.376 21.5038 131.013 20.8286L131.033 20.8082ZM128.836 26.1074V27.4373C128.836 27.9284 128.715 28.399 128.453 28.8491C128.191 29.2992 127.828 29.6675 127.324 29.954C126.82 30.2404 126.215 30.3836 125.469 30.3836C124.985 30.3836 124.542 30.3018 124.179 30.1586C123.816 30.0153 123.534 29.8107 123.332 29.5448C123.131 29.2788 123.05 28.9719 123.05 28.5627C123.05 28.133 123.151 27.7852 123.373 27.5601C123.594 27.2941 123.917 27.0895 124.32 26.9668C124.743 26.8235 125.207 26.7212 125.691 26.6598L126.517 26.5575C126.88 26.5166 127.243 26.4552 127.626 26.3939C128.009 26.3325 128.352 26.2506 128.654 26.1688C128.715 26.1688 128.775 26.1279 128.836 26.1074Z" fill="#6528D3"/>
<path d="M141.718 18.4348C141.597 18.4348 141.415 18.4348 141.194 18.4143C140.972 18.3939 140.79 18.4143 140.629 18.4143C139.782 18.4143 139.016 18.6394 138.351 19.0895C137.948 19.3555 137.625 19.6624 137.363 20.0307V18.6189H134.702V32.6343H137.424V23.9386C137.424 23.3862 137.545 22.8952 137.807 22.4859C138.069 22.0767 138.412 21.7289 138.855 21.5038C139.319 21.2583 139.823 21.1356 140.407 21.1356C140.669 21.1356 140.932 21.1356 141.173 21.1765C141.415 21.1969 141.556 21.2174 141.617 21.2379L142 21.3402V18.4962H141.718V18.4348Z" fill="#6528D3"/>
</g>
<defs>
<clipPath id="clip0_7641_72">
<rect width="134" height="32" fill="white" transform="translate(8 8)"/>
</clipPath>
</defs>
</svg>
