<svg width="32" height="32" viewBox="0 0 32 32" fill="none" xmlns="http://www.w3.org/2000/svg">
<rect x="1" y="1" width="30" height="30" rx="15" stroke="white" stroke-width="2"/>
<path d="M22.7663 14.0604C21.3916 14.0635 20.0482 13.6353 18.9297 12.8352V18.4205C18.9297 19.455 18.6141 20.4645 18.0236 21.3147C17.4331 22.1648 16.599 22.8149 15.6304 23.1774C14.6619 23.54 13.6059 23.5994 12.603 23.3431C11.6001 23.0868 10.7003 22.5336 10.0192 21.7553C9.33815 20.9771 8.91637 20.0051 8.80077 18.9768C8.68518 17.9485 8.89138 16.9108 9.38189 16.0013C9.8724 15.0918 10.6316 14.3542 11.5564 13.8854C12.4812 13.4165 13.5216 13.2446 14.5463 13.3853V16.1951C14.0777 16.0482 13.5747 16.0513 13.1091 16.2076C12.6436 16.3639 12.2375 16.6639 11.9532 17.0609C11.6689 17.4578 11.5158 17.9391 11.5189 18.433C11.522 18.9268 11.6814 19.4019 11.9719 19.7988C12.2625 20.1957 12.6718 20.4895 13.1404 20.6395C13.609 20.7896 14.112 20.7896 14.5776 20.6364C15.0431 20.4833 15.4524 20.1864 15.7398 19.7894C16.0272 19.3925 16.1834 18.9112 16.1834 18.4205V7.5H18.9328C18.9297 7.73129 18.9515 7.9657 18.9922 8.19386C19.089 8.70331 19.2858 9.19089 19.5764 9.62221C19.867 10.0535 20.2419 10.4223 20.6761 10.7036C21.2979 11.1131 22.0258 11.3318 22.7694 11.3318V14.0635L22.7663 14.0604Z" fill="white"/>
</svg>
